<svg xmlns="http://www.w3.org/2000/svg" viewBox="0 0 420 112" width="420" height="112"><defs><style>.cls-1,.cls-3,.cls-4{opacity:0.6;}.cls-2{fill:#fff;}.cls-3{fill:#40ece2;}.cls-3,.cls-4{isolation:isolate;}.cls-4{fill:#01c;}</style></defs><title>logo-white-source</title><g id="Layer_2" data-name="Layer 2" class="cls-1"><circle class="cls-2" cx="84" cy="56" r="56"/><circle class="cls-2" cx="56" cy="56" r="56"/></g><g id="Layer_1-2" data-name="Layer 1"><circle class="cls-3" cx="84" cy="56" r="56"/><circle class="cls-4" cx="56" cy="56" r="56"/><path class="cls-2" d="M189.09,29.64h19.07c11.78,0,20.77,3.23,20.77,14a12.46,12.46,0,0,1-9.69,12.25v.35c8.1,1.49,12.34,5.77,12.34,13.35,0,11.53-9.45,16.7-21.8,16.7H189.09ZM207.57,52.4c6.23,0,8.82-2.63,8.82-6.91s-2.76-5.87-8.73-5.87H201.9V52.4Zm1.16,24c7,0,10.32-2.53,10.32-7.7,0-5-3.26-7-10.32-7H201.9V76.36Z" transform="translate(0 0)"/><path class="cls-2" d="M240.56,43.18h10.53l1,9.44h.29c4.25-7.06,10.61-10.49,17.5-10.49a17.84,17.84,0,0,1,8.29,1.74l-2.59,10.76A22.47,22.47,0,0,0,268,53.37c-5.35,0-10.85,2.78-14.58,10.52V86.34H240.56Z" transform="translate(0 0)"/><path class="cls-2" d="M283.7,74.37c0-9.67,8-14.59,28.39-15.83-.45-3.86-3.36-6.22-9.15-6.22-4.17,0-8.31,1.6-13.16,4L285.21,48a41,41,0,0,1,20.2-5.84c12.14,0,19.49,6.31,19.49,19.54V86.34H314.44l-.93-4.86h-.32c-4.36,3.27-9.76,5.9-15.3,5.9C289.16,87.38,283.7,81.63,283.7,74.37Zm28.39-1V66.27c-12.7.64-16.11,3.39-16.11,7.08,0,2.78,2.34,4.12,6,4.12C305.78,77.47,309,75.71,312.09,73.34Z" transform="translate(0 0)"/><path class="cls-2" d="M332.49,43.18h10.44l.92,5.75h.35c3.74-3.67,8.49-6.8,14.92-6.8,9.75,0,14.05,6.67,14.05,17.56V86.34H360.36v-25c0-5.75-1.66-8.3-6.33-8.3-3.42,0-5.74,1.58-8.73,4.5v28.8H332.49Z" transform="translate(0 0)"/><path class="cls-2" d="M378.16,64.78c0-14.12,9.07-22.65,18.45-22.65a14.25,14.25,0,0,1,10.88,4.64h.3l-.6-6.67V25.4H420V86.34H409.56l-.92-4.44h-.32c-3.17,3.13-7.65,5.48-11.95,5.48C385.34,87.38,378.16,78.88,378.16,64.78Zm29,8.11V55.48A10.17,10.17,0,0,0,400,52.62c-4.67,0-8.7,3.8-8.7,12,0,8.46,3.13,12.27,8.36,12.27C402.55,76.9,405,75.82,407.19,72.89Z" transform="translate(0 0)"/></g></svg>